<svg xmlns="http://www.w3.org/2000/svg" width="1024" height="1024" viewBox="0 0 1024 1024">
  <defs>
    <linearGradient id="bg" x1="0" y1="0" x2="1" y2="1">
      <stop offset="0%" stop-color="#141418"/>
      <stop offset="100%" stop-color="#0e0e13"/>
    </linearGradient>
    <radialGradient id="glow" cx="0.3" cy="0.3" r="0.8">
      <stop offset="0%" stop-color="#7f8499" stop-opacity="0.12"/>
      <stop offset="100%" stop-color="#7f8499" stop-opacity="0"/>
    </radialGradient>
  </defs>
  <!-- Background with rounded corners -->
  <rect width="1024" height="1024" rx="228" fill="url(#bg)"/>
  <!-- Subtle glow -->
  <rect width="1024" height="1024" rx="228" fill="url(#glow)"/>
  <!-- Border -->
  <rect x="2" y="2" width="1020" height="1020" rx="226" fill="none" stroke="#2a2a32" stroke-width="2" opacity="0.5"/>
  <!-- Phosphor Book Open icon (regular weight), scaled and centered -->
  <g transform="translate(232, 232) scale(2.19)" fill="none" stroke="#858899" stroke-width="16" stroke-linecap="round" stroke-linejoin="round">
    <!-- Book Open from Phosphor Icons -->
    <path d="M128 72v144"/>
    <path d="M48 72v144a32 32 0 0 0 32 32h48"/>
    <path d="M208 72v144a32 32 0 0 1-32 32h-48"/>
    <path d="M48 72a32 32 0 0 1 32-32h16a32 32 0 0 1 32 32"/>
    <path d="M208 72a32 32 0 0 0-32-32h-16a32 32 0 0 0-32 32"/>
  </g>
</svg>
